<mxfile host="65bd71144e">
    <diagram id="XsVGanNQpKzWb4L4E-2Q" name="Page-1">
        <mxGraphModel dx="1095" dy="623" grid="1" gridSize="10" guides="1" tooltips="1" connect="1" arrows="1" fold="1" page="1" pageScale="1" pageWidth="850" pageHeight="1100" math="0" shadow="0">
            <root>
                <mxCell id="0"/>
                <mxCell id="1" parent="0"/>
                <mxCell id="5" style="edgeStyle=none;html=1;entryX=0.5;entryY=0;entryDx=0;entryDy=0;" parent="1" source="2" target="4" edge="1">
                    <mxGeometry relative="1" as="geometry"/>
                </mxCell>
                <mxCell id="2" value="Inicio" style="ellipse;whiteSpace=wrap;html=1;shadow=0;fillColor=light-dark(#FFFFFF,#FFFFFF);fontColor=light-dark(#000000,#000000);" parent="1" vertex="1">
                    <mxGeometry x="360" y="30" width="120" height="80" as="geometry"/>
                </mxCell>
                <mxCell id="4" value="&lt;font style=&quot;color: light-dark(rgb(0, 0, 0), rgb(0, 0, 0));&quot;&gt;num&lt;/font&gt;" style="shape=parallelogram;perimeter=parallelogramPerimeter;whiteSpace=wrap;html=1;fixedSize=1;strokeColor=light-dark(#000000,#FFFFFF);fillColor=light-dark(#FFFFFF,#FFFFFF);" parent="1" vertex="1">
                    <mxGeometry x="347.5" y="140" width="145" height="60" as="geometry"/>
                </mxCell>
                <mxCell id="10" value="" style="edgeStyle=none;html=1;" edge="1" parent="1" source="6" target="9">
                    <mxGeometry relative="1" as="geometry"/>
                </mxCell>
                <mxCell id="6" value="&lt;div&gt;&lt;br&gt;&lt;/div&gt;num" style="shape=manualInput;whiteSpace=wrap;html=1;fillColor=light-dark(#FFFFFF,#FFFFFF);fontColor=light-dark(#000000,#000000);" vertex="1" parent="1">
                    <mxGeometry x="342.5" y="220" width="150" height="80" as="geometry"/>
                </mxCell>
                <mxCell id="8" style="edgeStyle=none;html=1;entryX=0.52;entryY=0.185;entryDx=0;entryDy=0;entryPerimeter=0;" edge="1" parent="1" source="4" target="6">
                    <mxGeometry relative="1" as="geometry"/>
                </mxCell>
                <mxCell id="11" style="edgeStyle=none;html=1;" edge="1" parent="1" source="9">
                    <mxGeometry relative="1" as="geometry">
                        <mxPoint x="640" y="390" as="targetPoint"/>
                    </mxGeometry>
                </mxCell>
                <mxCell id="12" style="edgeStyle=none;html=1;" edge="1" parent="1" source="9">
                    <mxGeometry relative="1" as="geometry">
                        <mxPoint x="200" y="390" as="targetPoint"/>
                    </mxGeometry>
                </mxCell>
                <mxCell id="9" value="num % 2 = 0" style="rhombus;whiteSpace=wrap;html=1;fillColor=light-dark(#FFFFFF,#FFFFFF);fontColor=light-dark(#000000,#000000);" vertex="1" parent="1">
                    <mxGeometry x="360" y="350" width="110" height="80" as="geometry"/>
                </mxCell>
            </root>
        </mxGraphModel>
    </diagram>
</mxfile>